<svg width="669" height="956" viewBox="0 0 669 956" fill="none" xmlns="http://www.w3.org/2000/svg">
<g id="FOXdesign">
    <g id="FOXbody">
            <g id="head">
            <path id="Line 15" d="M365.325 553.089L104.904 491.674" stroke="#5E3A20" stroke-width="5"/>
            <path id="Line 16" d="M588 343.5L479 467" stroke="#5E3A20" stroke-width="5"/>
            <path id="Line 18" d="M490.378 224.878L586.399 345.381" stroke="#5E3A20" stroke-width="5"/>
            <path id="Line 20" d="M357.327 179.917L489.99 223.981" stroke="#5E3A20" stroke-width="5"/>
            <path id="Line 21" d="M467.777 36.7134L490.389 227.205" stroke="#5E3A20" stroke-width="5"/>
            <path id="Line 22" d="M468.492 35.8706L352.501 180.999" stroke="#5E3A20" stroke-width="5"/>
            <path id="Line 23" d="M354 179L213 223" stroke="#5E3A20" stroke-width="5"/>
            <path id="Line 24" d="M215.089 222.32L119.547 334.07" stroke="#5E3A20" stroke-width="5"/>
            <path id="Line 27" d="M120.994 331.403L105.799 494.978" stroke="#5E3A20" stroke-width="5"/>
            <path id="Line 28" d="M121.182 332.435L265.248 420.536" stroke="#5E3A20" stroke-width="5"/>
            <path id="Line 30" d="M213.613 220.366L337 376" stroke="#5E3A20" stroke-width="5"/>
            <path id="Line 31" d="M355.913 176.741L339.727 374.825" stroke="#5E3A20" stroke-width="5"/>
            <path id="Line 32" d="M488.971 224.634L416 379" stroke="#5E3A20" stroke-width="5"/>
            <path id="Line 33" d="M415.512 380.049L411.989 535.12" stroke="#5E3A20" stroke-width="5"/>
            <path id="Line 35" d="M337.331 372.886L378.272 518.253" stroke="#5E3A20" stroke-width="5"/>
            <path id="Line 36" d="M417.453 379.656L335.877 374.825" stroke="#5E3A20" stroke-width="5"/>
            <path id="Line 37" d="M335.807 376.131L262.635 420.27" stroke="#5E3A20" stroke-width="5"/>
            <path id="Line 34" d="M263.288 421.842L362.248 553.263" stroke="#5E3A20" stroke-width="5"/>
            <path id="Line 29" d="M107.604 490.412L264.35 418.925" stroke="#5E3A20" stroke-width="5"/>
            <path id="Line 25" d="M217.669 222.564L28.707 157.907" stroke="#5E3A20" stroke-width="5"/>
            <path id="Line 26" d="M122.131 334.39L29.3604 159.333" stroke="#5E3A20" stroke-width="5"/>
            <path id="Line 19" d="M416.323 379.169L583.7 345.992" stroke="#5E3A20" stroke-width="5"/>
            <path id="Line 17" d="M484.13 461.126L409.117 543.887" stroke="#5E3A20" stroke-width="5"/>
            <path id="Polygon 4" d="M23 153L34 157L28 162L23 153Z" fill="#5E3A20"/>
            <path id="Polygon 5" d="M471.076 27L470.5 38.5L464 37.5L471.076 27Z" fill="#5E3A20"/>
            <path id="Polygon 6" d="M495.74 799.738L488 801L487.5 799L488.5 796L495.74 799.738Z" fill="#5E3A20"/>
            </g>
            <g id="body">
            <path id="Line 1" d="M59 735.986L219.063 873.915" stroke="#5E3A20" stroke-width="7"/>
            <path id="Line 2" d="M78.3091 635.775L294.657 870.97" stroke="#5E3A20" stroke-width="7"/>
            <path id="Line 3" d="M76.6108 630.018L346.466 728.892" stroke="#5E3A20" stroke-width="7"/>
            <path id="Line 10" d="M262.5 529L386 739" stroke="#5E3A20" stroke-width="7"/>
            <path id="Line 11" d="M495 451L418 747" stroke="#5E3A20" stroke-width="7"/>
            <path id="Line 12" d="M204.5 515.5L76.9878 629.572" stroke="#5E3A20" stroke-width="7"/>
            <path id="Line 13" d="M385.329 552.658L406.136 742.315" stroke="#5E3A20" stroke-width="7"/>
            <path id="Line 4" d="M78.0305 626.704L60.5308 740.331" stroke="#5E3A20" stroke-width="7"/>
            <path id="Line 5" d="M340.441 729.508L293.85 868.017" stroke="#5E3A20" stroke-width="7"/>
            <path id="Line 6" d="M359.127 869.987L215.809 872.536" stroke="#5E3A20" stroke-width="7"/>
            <path id="Line 8" d="M487.578 799.473L405.26 740.702" stroke="#5E3A20" stroke-width="7"/>
            <path id="Line 7" d="M487.5 797.5L356.914 870.65" stroke="#5E3A20" stroke-width="7"/>
            <path id="Line 9" d="M409.1 744.017L340.556 727.642" stroke="#5E3A20" stroke-width="7"/>
            </g>
            <g id="eyes">
            <path id="Polygon 3" d="M417.642 380.702L462 372.5L416.711 437.773L417.642 380.702Z" fill="#5E3A20"/>
            <path id="Polygon 3 2" d="M262.5 421L286.865 456.492L213 445L237.5 433.5L262.5 421Z" fill="#5E3A20"/>
            </g>
            <g id="nose">
            <path id="Ellipse 1" d="M388.912 554.71C403.859 551.458 415.182 545.539 414.204 541.49C413.224 537.441 400.313 536.795 385.365 540.047C370.418 543.299 359.095 549.218 360.075 553.267C361.053 557.317 373.964 557.962 388.912 554.71Z" fill="#5E3A20"/>
            <path id="Polygon 3 3" d="M374.831 508.038L418.125 536.993L415 544L406 550L386.5 555.5L366.5 557.5L351.5 552.5L374.831 508.038Z" fill="#5E3A20"/>
            </g>
    </g>

    <g id="logo">
    <path class='logo-element' d="M43 170L203 225.914L123 320L80.9487 242.581L43 170Z" fill="#BA621C"/>
    <path class='logo-element' d="M132 330.5L215 235L326 373.5L263.5 411L132 330.5Z" fill="#F8DFB8"/>
    <path class='logo-element' d="M227.5 227L347 189.5L333.5 362L242.416 246L227.5 227Z" fill="#253812"/>
    <path class='logo-element' d="M126 343L247 419L114.5 480L120.5 414.5L126 343Z" fill="#E09D30"/>
    <path class='logo-element' d="M362.303 189.026L478.593 226.775L410.949 372.301L346.996 367.827L362.303 189.026Z" fill="#BA621C"/>
    <path class='logo-element' d="M428 101L462.5 56.5L480.5 212.5L367.5 175L428 101Z" fill="#F8DFB8"/>
    <path class='logo-element' d="M470.5 282.5L490.5 237.5L573.5 340.5L428 369.5L470.5 282.5Z" fill="#E09D30"/>
    <path class='logo-element' d="M212.945 449.986L283 460.5L344.5 541L123.5 489.5L212.945 449.986Z" fill="#253812"/>
    <path class='logo-element' d="M422 441.5L466.5 377L563 358L419.5 522L422 441.5Z" fill="#253812"/>
    <path class='logo-element' d="M272.5 422.5L333.5 386L369.5 511L356.5 535L285.5 440L272.5 422.5Z" fill="#E09D30"/>
    <path class='logo-element' d="M347 382.5L406.5 386.5V522.5L382 507L347 382.5Z" fill="#F8DFB8"/>
    <path class='logo-element' d="M90.5 627.5L209 523.5L257.5 535L281 575.5L370.5 728L90.5 627.5Z" fill="#BA621C"/>
    <path class='logo-element' d="M347.5 737.5L405 751.5L470 796.5L357 862.5L304 862.5L347.5 737.5Z" fill="#253812"/>
    <path class='logo-element' d="M81.5 651L278 864.5L220.5 864.5L68.5 734.5L81.5 651Z" fill="#253812"/>
    <path class='logo-element' d="M276 538L365.5 561.5L377.5 561.5L387 645.5L399 733L390 731L276 538Z" fill="#F8DFB8"/>
    <path class='logo-element' d="M95.5 644.5L331.5 733L313 783.5L290 853L95.5 644.5Z" fill="#E09D30"/>
    <path class='logo-element' d="M392.5 557.5L411 552.5L420.5 544L423 537.5L434 527L483.5 470.5L413 737.5L400.866 630.122L392.5 557.5Z" fill="#BA621C"/>
    </g>
</g>
</svg>
