<svg width="202" height="324" viewBox="0 0 202 324" fill="none" xmlns="http://www.w3.org/2000/svg">
<g id="LOGO">
<path id="Rectangle 10" d="M0 43.9821L60.8499 65.2468L30.425 101.029L14.4323 71.5853L0 43.9821Z" fill="#BA621C"/>
<path id="Rectangle 11" d="M33.8478 105.022L65.4137 68.7023L107.628 121.376L83.8588 135.637L33.8478 105.022Z" fill="#F8DFB8"/>
<path id="Rectangle 12" d="M70.1675 65.6598L115.615 51.3981L110.481 117.002L75.8403 72.8857L70.1675 65.6598Z" fill="#253812"/>
<path id="Rectangle 13" d="M31.5659 109.776L77.5836 138.68L27.1923 161.879L29.4742 136.968L31.5659 109.776Z" fill="#E09D30"/>
<path id="Rectangle 14" d="M121.435 51.218L165.661 65.5743L139.935 120.92L115.613 119.218L121.435 51.218Z" fill="#BA621C"/>
<path id="Rectangle 15" d="M146.42 17.7405L159.541 0.816654L166.386 60.1453L123.411 45.8836L146.42 17.7405Z" fill="#F8DFB8"/>
<path id="Rectangle 16" d="M162.583 86.7671L170.19 69.6531L201.756 108.825L146.42 119.854L162.583 86.7671Z" fill="#E09D30"/>
<path id="Rectangle 17" d="M64.6321 150.464L91.2749 154.463L114.664 185.078L30.6151 165.492L64.6321 150.464Z" fill="#253812"/>
<path id="Rectangle 18" d="M144.138 147.237L161.062 122.707L197.762 115.481L143.187 177.852L144.138 147.237Z" fill="#253812"/>
<path id="Rectangle 19" d="M87.2816 140.011L110.481 126.129L124.172 173.668L119.228 182.796L92.2257 146.666L87.2816 140.011Z" fill="#E09D30"/>
<path id="Rectangle 20" d="M115.615 124.798L138.243 126.32V178.042L128.926 172.147L115.615 124.798Z" fill="#F8DFB8"/>
<path id="Rectangle 21" d="M18.0648 217.975L63.1318 178.422L81.5769 182.796L90.5142 198.199L124.552 256.196L18.0648 217.975Z" fill="#BA621C"/>
<path id="Rectangle 22" d="M115.805 259.809L137.673 265.133L162.393 282.247L119.418 307.348L99.2614 307.348L115.805 259.809Z" fill="#253812"/>
<path id="Rectangle 23" d="M14.642 226.912L89.3733 308.109L67.5054 308.109L9.69794 258.668L14.642 226.912Z" fill="#253812"/>
<path id="Rectangle 24" d="M88.6127 183.937L122.651 192.874L127.214 192.874L130.827 224.82L135.391 258.098L131.968 257.337L88.6127 183.937Z" fill="#F8DFB8"/>
<path id="Rectangle 25" d="M19.9664 224.44L109.72 258.098L102.684 277.303L93.937 303.735L19.9664 224.44Z" fill="#E09D30"/>
<path id="Rectangle 26" d="M132.919 191.353L139.955 189.451L143.568 186.219L144.519 183.747L148.702 179.753L167.527 158.266L140.715 259.809L136.101 218.972L132.919 191.353Z" fill="#BA621C"/>
</g>
</svg>
